# xmcd CD database file
#
# Track frame offsets:
#	182
#	17365
#	30942
#	49305
#	69700
#	90902
#	106987
#	120912
#	137670
#	157310
#
# Disc length: 2346 seconds
#
# Revision: 5
# Processed by: cddbd v1.5.2PL0 Copyright (c) Steve Scherf et al.
# Submitted via: CDex 1.51
#
DISCID=7509280a
DTITLE=Johnny Winter - Still Alive And Well
DYEAR=1973
DGENRE=Blues Rock
TTITLE0=Rock Me Baby
TTITLE1=Can't You Feel It
TTITLE2=Cheap Tequila
TTITLE3=All Tore Down
TTITLE4=Rock and Roll
TTITLE5=Silver Train
TTITLE6=Ain't Nothing To Me
TTITLE7=Still Alive and Well
TTITLE8=Too Much Seconal
TTITLE9=Let It Bleed
EXTD=YEAR: 1973
EXTT0=
EXTT1=
EXTT2=
EXTT3=
EXTT4=
EXTT5=
EXTT6=
EXTT7=
EXTT8=
EXTT9=
PLAYORDER=
